<mxfile host="Electron" agent="Mozilla/5.0 (Windows NT 10.0; Win64; x64) AppleWebKit/537.36 (KHTML, like Gecko) draw.io/25.0.2 Chrome/128.0.6613.186 Electron/32.2.5 Safari/537.36" version="25.0.2">
  <diagram name="Page-1" id="nkzdYy1Z-tdnjdlrSIrJ">
    <mxGraphModel dx="1208" dy="702" grid="1" gridSize="10" guides="1" tooltips="1" connect="1" arrows="1" fold="1" page="1" pageScale="1" pageWidth="850" pageHeight="1100" math="0" shadow="0">
      <root>
        <mxCell id="0" />
        <mxCell id="1" parent="0" />
        <mxCell id="6XaGseGxNPZ3xupMx_-k-6" style="edgeStyle=orthogonalEdgeStyle;rounded=0;orthogonalLoop=1;jettySize=auto;html=1;exitX=0.5;exitY=1;exitDx=0;exitDy=0;" edge="1" parent="1" source="6XaGseGxNPZ3xupMx_-k-1" target="6XaGseGxNPZ3xupMx_-k-2">
          <mxGeometry relative="1" as="geometry" />
        </mxCell>
        <mxCell id="6XaGseGxNPZ3xupMx_-k-7" style="edgeStyle=orthogonalEdgeStyle;rounded=0;orthogonalLoop=1;jettySize=auto;html=1;exitX=1;exitY=0.5;exitDx=0;exitDy=0;" edge="1" parent="1" source="6XaGseGxNPZ3xupMx_-k-1" target="6XaGseGxNPZ3xupMx_-k-3">
          <mxGeometry relative="1" as="geometry" />
        </mxCell>
        <mxCell id="6XaGseGxNPZ3xupMx_-k-1" value="&lt;b&gt;A&lt;/b&gt;" style="ellipse;whiteSpace=wrap;html=1;aspect=fixed;fillColor=#dae8fc;strokeColor=#6c8ebf;" vertex="1" parent="1">
          <mxGeometry x="100" y="140" width="40" height="40" as="geometry" />
        </mxCell>
        <mxCell id="6XaGseGxNPZ3xupMx_-k-8" style="rounded=0;orthogonalLoop=1;jettySize=auto;html=1;exitX=1;exitY=0;exitDx=0;exitDy=0;entryX=0;entryY=1;entryDx=0;entryDy=0;" edge="1" parent="1" source="6XaGseGxNPZ3xupMx_-k-2" target="6XaGseGxNPZ3xupMx_-k-3">
          <mxGeometry relative="1" as="geometry" />
        </mxCell>
        <mxCell id="6XaGseGxNPZ3xupMx_-k-9" style="edgeStyle=orthogonalEdgeStyle;rounded=0;orthogonalLoop=1;jettySize=auto;html=1;exitX=1;exitY=0.5;exitDx=0;exitDy=0;entryX=0;entryY=0.5;entryDx=0;entryDy=0;" edge="1" parent="1" source="6XaGseGxNPZ3xupMx_-k-2" target="6XaGseGxNPZ3xupMx_-k-4">
          <mxGeometry relative="1" as="geometry" />
        </mxCell>
        <mxCell id="6XaGseGxNPZ3xupMx_-k-2" value="&lt;b&gt;B&lt;/b&gt;" style="ellipse;whiteSpace=wrap;html=1;aspect=fixed;fillColor=#ffe6cc;strokeColor=#d79b00;" vertex="1" parent="1">
          <mxGeometry x="100" y="220" width="40" height="40" as="geometry" />
        </mxCell>
        <mxCell id="6XaGseGxNPZ3xupMx_-k-10" style="edgeStyle=orthogonalEdgeStyle;rounded=0;orthogonalLoop=1;jettySize=auto;html=1;exitX=0.5;exitY=1;exitDx=0;exitDy=0;" edge="1" parent="1" source="6XaGseGxNPZ3xupMx_-k-3" target="6XaGseGxNPZ3xupMx_-k-4">
          <mxGeometry relative="1" as="geometry" />
        </mxCell>
        <mxCell id="6XaGseGxNPZ3xupMx_-k-13" style="rounded=0;orthogonalLoop=1;jettySize=auto;html=1;exitX=1;exitY=0.5;exitDx=0;exitDy=0;entryX=0;entryY=0;entryDx=0;entryDy=0;" edge="1" parent="1" source="6XaGseGxNPZ3xupMx_-k-3" target="6XaGseGxNPZ3xupMx_-k-5">
          <mxGeometry relative="1" as="geometry" />
        </mxCell>
        <mxCell id="6XaGseGxNPZ3xupMx_-k-3" value="&lt;b&gt;D&lt;/b&gt;" style="ellipse;whiteSpace=wrap;html=1;aspect=fixed;fillColor=#d5e8d4;strokeColor=#82b366;" vertex="1" parent="1">
          <mxGeometry x="180" y="140" width="40" height="40" as="geometry" />
        </mxCell>
        <mxCell id="6XaGseGxNPZ3xupMx_-k-14" style="rounded=0;orthogonalLoop=1;jettySize=auto;html=1;exitX=1;exitY=0.5;exitDx=0;exitDy=0;entryX=0;entryY=1;entryDx=0;entryDy=0;" edge="1" parent="1" source="6XaGseGxNPZ3xupMx_-k-4" target="6XaGseGxNPZ3xupMx_-k-5">
          <mxGeometry relative="1" as="geometry" />
        </mxCell>
        <mxCell id="6XaGseGxNPZ3xupMx_-k-4" value="&lt;b&gt;C&lt;/b&gt;" style="ellipse;whiteSpace=wrap;html=1;aspect=fixed;fillColor=#f8cecc;strokeColor=#b85450;" vertex="1" parent="1">
          <mxGeometry x="180" y="220" width="40" height="40" as="geometry" />
        </mxCell>
        <mxCell id="6XaGseGxNPZ3xupMx_-k-5" value="&lt;b&gt;E&lt;/b&gt;" style="ellipse;whiteSpace=wrap;html=1;aspect=fixed;fillColor=#e1d5e7;strokeColor=#9673a6;" vertex="1" parent="1">
          <mxGeometry x="260" y="180" width="40" height="40" as="geometry" />
        </mxCell>
        <mxCell id="6XaGseGxNPZ3xupMx_-k-15" value="&lt;ul&gt;&lt;li&gt;&lt;font style=&quot;font-size: 14px;&quot;&gt;A&amp;nbsp;到 D&amp;nbsp;的箭头表示任务 D&amp;nbsp;依赖于任务 A&lt;/font&gt;&lt;/li&gt;&lt;li&gt;&lt;font style=&quot;font-size: 14px;&quot;&gt;入度：指向该节点的箭头或连线数目&lt;/font&gt;&lt;/li&gt;&lt;li&gt;&lt;font style=&quot;font-size: 14px;&quot;&gt;出度：从该节点引出的箭头或连线数目&lt;/font&gt;&lt;/li&gt;&lt;/ul&gt;" style="text;html=1;align=left;verticalAlign=middle;whiteSpace=wrap;rounded=0;" vertex="1" parent="1">
          <mxGeometry x="310" y="152.5" width="290" height="95" as="geometry" />
        </mxCell>
      </root>
    </mxGraphModel>
  </diagram>
</mxfile>
